# Alias Wavefront OBJ File Exported from SketchUp
# with OBJexporter (c) 2013 TIG
# Units = meters

mtllib theroadahead.mtl

g theroadahead-SKP-Color_M07
usemtl Color_M07
v 0 0 -0.3125
v -50 0 -5
v -50 0 -0.3125
v 0 0 -5
v 0 0 5
v -50 0 0.3125
v -50 0 5
v 0 0 0.3125
v 0 0 2.1657342586e-15
v -50 0 -0.15625
v -50 0 2.1657342586e-15
v 0 0 -0.15625
v 0 0 0.15625
v -50 0 0.15625
v 50 0 -0.3125
v 50 0 -5
v 50 0 5
v 50 0 0.3125
v 50 0 0.15625
v 50 0 2.1657342586e-15
v 50 0 -0.15625
vt 9.02389274415e-13 12.3031496063
vt -1968.50393701 196.850393701
vt -1968.50393701 12.3031496063
vt 9.02389274415e-13 196.850393701
vt 9.02389274415e-13 -196.850393701
vt -1968.50393701 -12.3031496063
vt -1968.50393701 -196.850393701
vt 9.02389274415e-13 -12.3031496063
vt 9.02389274415e-13 -8.52651282912e-14
vt -1968.50393701 6.15157480315
vt -1968.50393701 -8.52651282912e-14
vt 9.02389274415e-13 6.15157480315
vt 9.02389274415e-13 -6.15157480315
vt -1968.50393701 -6.15157480315
vt 1968.50393701 12.3031496063
vt 1968.50393701 196.850393701
vt 1968.50393701 -196.850393701
vt 1968.50393701 -12.3031496063
vt 1968.50393701 -6.15157480315
vt 1968.50393701 -8.52651282912e-14
vt 1968.50393701 6.15157480315
vn 0 1 0
f 1/1/1 2/2/1 3/3/1
f 2/2/1 1/1/1 4/4/1
f 5/5/1 6/6/1 7/7/1
f 6/6/1 5/5/1 8/8/1
f 9/9/1 10/10/1 11/11/1
f 10/10/1 9/9/1 12/12/1
f 13/13/1 11/11/1 14/14/1
f 11/11/1 13/13/1 9/9/1
f 15/15/1 4/4/1 1/1/1
f 4/4/1 15/15/1 16/16/1
f 17/17/1 8/8/1 5/5/1
f 8/8/1 17/17/1 18/18/1
f 19/19/1 9/9/1 13/13/1
f 9/9/1 19/19/1 20/20/1
f 20/20/1 12/12/1 9/9/1
f 12/12/1 20/20/1 21/21/1

g theroadahead-SKP-Color_M06
usemtl Color_M06
v 50 7.4217112997 -5
v -50 7.4217112997 -5
v -50 7.4217112997 5
v 50 7.4217112997 5
v 0 7.4217112997 5
vt 1968.50393701 292.193358256
vt 9.02389274415e-13 0
vt 1968.50393701 0
vt -1968.50393701 0
vt -1968.50393701 292.193358256
vt -9.02389274415e-13 0
vt -9.02389274415e-13 292.193358256
vn 0 0 1
vn 0 0 -1
f 22/22/2 4/23/2 16/24/2
f 4/23/2 22/22/2 2/25/2
f 2/25/2 22/22/2 23/26/2
f 24/22/3 5/27/3 7/24/3
f 5/27/3 24/22/3 17/25/3
f 17/25/3 24/22/3 25/26/3
f 25/26/3 24/22/3 26/28/3

g theroadahead-SKP-Color_M05
usemtl Color_M05
v 50 10.08 0
v -50 9.65476176089 2.27161445262
v -50 10.08 0
v 50 9.65476176089 2.27161445262
v 50 9.65476176089 -2.27161445262
v -50 9.65476176089 -2.27161445262
v -50 8.43663471068 4.23559670074
v 0 8.43663471068 4.23559670074
v 50 8.43663471068 4.23559670074
v 50 8.43663471068 -4.23559670074
v -50 8.43663471068 -4.23559670074
vt -1968.50393701 73.0206016703
vt 1968.50393701 -17.9665359835
vt 1968.50393701 73.0206016703
vt -1968.50393701 -17.9665359835
vt 1968.50393701 164.994402582
vt -9.02389274415e-13 114.971437832
vt 1968.50393701 114.971437832
vt -9.02389274415e-13 164.994402582
vt -1968.50393701 124.346833267
vt 1968.50393701 33.3596956127
vt 1968.50393701 124.346833267
vt -9.02389274415e-13 33.3596956127
vt -1968.50393701 33.3596956127
vt -1968.50393701 114.971437832
vt -1968.50393701 164.994402582
vn -5.79552053832e-20 -0.98292618246 -0.184000325638
vn -2.30700481871e-19 -0.98292618246 0.184000325638
vn 0 -0.601616042378 -0.798785413959
vn 2.34560532413e-33 -0.849813915972 -0.527082828615
vn -3.9891597846e-19 -0.849813915972 0.527082828615
vn 5.01657390288e-34 -0.601616042378 0.798785413959
f 27/29/4 28/30/4 29/31/4
f 28/30/4 27/29/4 30/32/4
f 31/30/5 29/29/5 32/32/5
f 29/29/5 31/30/5 27/31/5
f 33/33/6 26/34/6 24/35/6
f 26/34/6 33/33/6 34/36/6
f 30/37/7 33/38/7 28/39/7
f 33/38/7 30/37/7 34/40/7
f 34/40/7 30/37/7 35/41/7
f 36/38/8 32/37/8 37/41/8
f 32/37/8 36/38/8 31/39/8
f 36/33/9 23/42/9 22/35/9
f 23/42/9 36/33/9 37/43/9
f 34/36/6 25/42/6 26/34/6
f 25/42/6 34/36/6 35/43/6

g theroadahead-SKP-Color_D05
usemtl Color_D05
f 12/12/1 3/3/1 10/10/1
f 3/3/1 12/12/1 1/1/1
f 8/8/1 14/14/1 6/6/1
f 14/14/1 8/8/1 13/13/1
f 18/18/1 13/13/1 8/8/1
f 13/13/1 18/18/1 19/19/1
f 21/21/1 1/1/1 12/12/1
f 1/1/1 21/21/1 15/15/1

#EOF
